<?xml version="1.0" encoding="UTF-8"?><svg id="Layer_2" xmlns="http://www.w3.org/2000/svg" xmlns:xlink="http://www.w3.org/1999/xlink" viewBox="0 0 640 640"><defs><style>.cls-1,.cls-2{fill:#fff;}.cls-3{fill:url(#radial-gradient);}.cls-2{font-family:TengwarAnnatarGlaemscrafuItalic, 'Tengwar Annatar Glaemscrafu';font-size:42.67px;stroke:#fff;stroke-miterlimit:10;stroke-width:1.33px;}</style><radialGradient id="radial-gradient" cx="320.01" cy="320.01" fx="320.01" fy="320.01" r="308.62" gradientUnits="userSpaceOnUse"><stop offset="0" stop-color="#3c5485"/><stop offset="1" stop-color="#212f4b"/></radialGradient></defs><g id="Gradient_Logo"><g id="Gradient_Logo-2"><circle class="cls-3" cx="320.01" cy="320.01" r="308.62"/><path class="cls-1" d="M320,0C143.27,0,0,143.27,0,320s143.27,320,320,320,320-143.25,320-320S496.73,0,320,0ZM320,627.2c-169.64,0-307.2-137.53-307.2-307.2S150.36,12.8,320,12.8s307.2,137.56,307.2,307.2-137.53,307.2-307.2,307.2Z"/><text class="cls-2" transform="translate(227.76 89.82) rotate(-18.36) scale(.75 1)"><tspan x="0" y="0">w</tspan></text><text class="cls-2" transform="translate(257.83 80.22) rotate(-12.21) scale(.75 1)"><tspan x="0" y="0">h</tspan></text><text class="cls-2" transform="translate(278.92 75.94) rotate(-9.49) scale(.75 1)"><tspan x="0" y="0">M</tspan></text><text class="cls-2" transform="translate(280.72 75.27) rotate(-5.91) scale(.75 1)"><tspan x="0" y="0">j</tspan></text><text class="cls-2" transform="translate(309.2 72.33) rotate(.95) scale(.75 1)"><tspan x="0" y="0">2</tspan></text><text class="cls-2" transform="translate(340.68 72.98) rotate(8.05) scale(.75 1)"><tspan x="0" y="0">b</tspan></text><text class="cls-2" transform="translate(370.96 77.8) rotate(11.82) scale(.75 1)"><tspan x="0" y="0">%</tspan></text><text class="cls-2" transform="translate(373.03 78.19) rotate(13.42) scale(.75 1)"><tspan x="0" y="0"> </tspan></text><text class="cls-2" transform="translate(384.18 80.9) rotate(16.1) scale(.75 1)"><tspan x="0" y="0"> </tspan></text><text class="cls-2" transform="translate(395.1 83.69) rotate(21.04) scale(.75 1)"><tspan x="0" y="0">s</tspan></text><text class="cls-2" transform="translate(423.86 95.2) rotate(26.57) scale(.75 1)"><tspan x="0" y="0">9</tspan></text><text class="cls-2" transform="translate(438.97 102.96) rotate(28.78) scale(.75 1)"><tspan x="0" y="0">N</tspan></text><text class="cls-2" transform="translate(440.81 103.47) rotate(32.66) scale(.75 1)"><tspan x="0" y="0">5</tspan></text><text class="cls-2" transform="translate(467.07 120.91) rotate(37.59) scale(.75 1)"><tspan x="0" y="0"> </tspan></text><text class="cls-2" transform="translate(476.15 127.96) rotate(40.24) scale(.75 1)"><tspan x="0" y="0"> </tspan></text><text class="cls-2" transform="translate(484.9 135.31) rotate(43.62) scale(.75 1)"><tspan x="0" y="0">7</tspan></text><text class="cls-2" transform="translate(497.88 147.32) rotate(49.27) scale(.75 1)"><tspan x="0" y="0">5</tspan></text><text class="cls-2" transform="translate(518.1 171.67) rotate(53.13) scale(.75 1)"><tspan x="0" y="0">^</tspan></text><text class="cls-2" transform="translate(519.51 172.94) rotate(56.69) scale(.75 1)"><tspan x="0" y="0">j</tspan></text><text class="cls-2" transform="translate(535.06 197.48) rotate(60.27) scale(.75 1)"><tspan x="0" y="0">#</tspan></text><text class="cls-2" transform="translate(536.35 198.84) rotate(64.17) scale(.75 1)"><tspan x="0" y="0">2</tspan></text><text class="cls-2" transform="translate(549.69 227.59) rotate(69.17) scale(.75 1)"><tspan x="0" y="0"> </tspan></text><text class="cls-2" transform="translate(553.74 238.36) rotate(71.86) scale(.75 1)"><tspan x="0" y="0"> </tspan></text><text class="cls-2" transform="translate(557.33 249.19) rotate(75.28) scale(.75 1)"><tspan x="0" y="0">7</tspan></text><text class="cls-2" transform="translate(561.73 266.61) rotate(78.47) scale(.75 1)"><tspan x="0" y="0">`</tspan></text><text class="cls-2" transform="translate(563.58 276.04) rotate(79.83) scale(.75 1)"><tspan x="0" y="0">V</tspan></text><text class="cls-2" transform="translate(563.98 278.15) rotate(81.2) scale(.75 1)"><tspan x="0" y="0">`</tspan></text><text class="cls-2" transform="translate(565.38 287.65) rotate(82.56) scale(.75 1)"><tspan x="0" y="0">M</tspan></text><text class="cls-2" transform="translate(565.98 289.45) rotate(86.12) scale(.75 1)"><tspan x="0" y="0">j</tspan></text><text class="cls-2" transform="translate(567.47 318.41) rotate(89.07) scale(.75 1)"><tspan x="0" y="0">$</tspan></text><text class="cls-2" transform="translate(567.52 320.56) rotate(91.21) scale(.75 1)"><tspan x="0" y="0"> </tspan></text><text class="cls-2" transform="translate(567.23 332.08) rotate(93.84) scale(.75 1)"><tspan x="0" y="0"> </tspan></text><text class="cls-2" transform="translate(566.58 343.43) rotate(97.65) scale(.75 1)"><tspan x="0" y="0">1</tspan></text><text class="cls-2" transform="translate(563.83 364.69) rotate(103.48) scale(.75 1)"><tspan x="0" y="0">j</tspan></text><text class="cls-2" transform="translate(556.59 392.83) rotate(107.09) scale(.75 1)"><tspan x="0" y="0">^</tspan></text><text class="cls-2" transform="translate(556.19 394.76) rotate(109.83) scale(.75 1)"><tspan x="0" y="0">z</tspan></text><text class="cls-2" transform="translate(548.69 414.83) rotate(113.41) scale(.75 1)"><tspan x="0" y="0">~</tspan></text><text class="cls-2" transform="translate(544.8 423.63) rotate(114.78) scale(.75 1)"><tspan x="0" y="0">B</tspan></text><text class="cls-2" transform="translate(544.44 425.47) rotate(118.67) scale(.75 1)"><tspan x="0" y="0">5</tspan></text><text class="cls-2" transform="translate(528.76 452.96) rotate(122.55) scale(.75 1)"><tspan x="0" y="0">$</tspan></text><text class="cls-2" transform="translate(527.81 454.74) rotate(125.05) scale(.75 1)"><tspan x="0" y="0">8</tspan></text><text class="cls-2" transform="translate(516.44 470.62) rotate(128.62) scale(.75 1)"><tspan x="0" y="0"> </tspan></text><text class="cls-2" transform="translate(509.22 479.59) rotate(131.27) scale(.75 1)"><tspan x="0" y="0"> </tspan></text><text class="cls-2" transform="translate(502.08 488.27) rotate(136.18) scale(.75 1)"><tspan x="0" y="0">t</tspan></text><text class="cls-2" transform="translate(479.45 509.87) rotate(143.4) scale(.75 1)"><tspan x="0" y="0">2</tspan></text><text class="cls-2" transform="translate(453.56 528.38) rotate(147.29) scale(.75 1)"><tspan x="0" y="0">&apos;</tspan></text><text class="cls-2" transform="translate(451.68 529.58) rotate(147.8) scale(.75 1)"><tspan x="0" y="0">%</tspan></text><text class="cls-2" transform="translate(450.29 530.89) rotate(151.38) scale(.75 1)"><tspan x="0" y="0">j</tspan></text><text class="cls-2" transform="translate(424.58 544.36) rotate(154.97) scale(.75 1)"><tspan x="0" y="0">L</tspan></text><text class="cls-2" transform="translate(422.71 545.29) rotate(156.72) scale(.75 1)"><tspan x="0" y="0">\</tspan></text><text class="cls-2" transform="translate(410.98 550.35) rotate(160.18) scale(.75 1)"><tspan x="0" y="0">]</tspan></text><text class="cls-2" transform="translate(394.96 555.93) rotate(162.39) scale(.75 1)"><tspan x="0" y="0">V</tspan></text><text class="cls-2" transform="translate(393.13 556.7) rotate(165.15) scale(.75 1)"><tspan x="0" y="0">6</tspan></text><text class="cls-2" transform="translate(372.43 562.12) rotate(170.13) scale(.75 1)"><tspan x="0" y="0">3</tspan></text><text class="cls-2" transform="translate(351.22 565.58) rotate(173.93) scale(.75 1)"><tspan x="0" y="0"> </tspan></text><text class="cls-2" transform="translate(339.77 566.75) rotate(176.58) scale(.75 1)"><tspan x="0" y="0"> </tspan></text><text class="cls-2" transform="translate(328.56 567.78) rotate(-178.55) scale(.75 1)"><tspan x="0" y="0">5</tspan></text><text class="cls-2" transform="translate(297.05 566.48) rotate(-173.65) scale(.75 1)"><tspan x="0" y="0"> </tspan></text><text class="cls-2" transform="translate(285.52 565.1) rotate(-172.06) scale(.75 1)"><tspan x="0" y="0">%</tspan></text><text class="cls-2" transform="translate(283.43 564.84) rotate(-170.47) scale(.75 1)"><tspan x="0" y="0"> </tspan></text><text class="cls-2" transform="translate(272.27 563.35) rotate(-165.47) scale(.75 1)"><tspan x="0" y="0">@</tspan></text><text class="cls-2" transform="translate(241.72 554.89) rotate(-160.46) scale(.75 1)"><tspan x="0" y="0"> </tspan></text><text class="cls-2" transform="translate(230.92 551.01) rotate(-157.79) scale(.75 1)"><tspan x="0" y="0"> </tspan></text><text class="cls-2" transform="translate(220.35 546.81) rotate(-153.96) scale(.75 1)"><tspan x="0" y="0">3</tspan></text><text class="cls-2" transform="translate(201.19 537.37) rotate(-149) scale(.75 1)"><tspan x="0" y="0">6</tspan></text><text class="cls-2" transform="translate(182.77 525.97) rotate(-146.27) scale(.75 1)"><tspan x="0" y="0">%</tspan></text><text class="cls-2" transform="translate(180.98 525.31) rotate(-142.38) scale(.75 1)"><tspan x="0" y="0">2</tspan></text><text class="cls-2" transform="translate(156.2 505.57) rotate(-137.44) scale(.75 1)"><tspan x="0" y="0"> </tspan></text><text class="cls-2" transform="translate(147.76 497.76) rotate(-134.8) scale(.75 1)"><tspan x="0" y="0"> </tspan></text><text class="cls-2" transform="translate(139.59 490) rotate(-129.99) scale(.75 1)"><tspan x="0" y="0">x</tspan></text><text class="cls-2" transform="translate(120.35 466.33) rotate(-125.18) scale(.75 1)"><tspan x="0" y="0"> </tspan></text><text class="cls-2" transform="translate(113.72 456.75) rotate(-123.59) scale(.75 1)"><tspan x="0" y="0">(</tspan></text><text class="cls-2" transform="translate(112.49 454.88) rotate(-123.07) scale(.75 1)"><tspan x="0" y="0">E</tspan></text><text class="cls-2" transform="translate(111.31 453.13) rotate(-121.48) scale(.75 1)"><tspan x="0" y="0"> </tspan></text><text class="cls-2" transform="translate(105.3 443.46) rotate(-117.9) scale(.75 1)"><tspan x="0" y="0">8</tspan></text><text class="cls-2" transform="translate(96.26 426.26) rotate(-113.35) scale(.75 1)"><tspan x="0" y="0">i</tspan></text><text class="cls-2" transform="translate(88.6 407.89) rotate(-110.8) scale(.75 1)"><tspan x="0" y="0">P</tspan></text><text class="cls-2" transform="translate(87.81 405.79) rotate(-110.28) scale(.75 1)"><tspan x="0" y="0">B</tspan></text><text class="cls-2" transform="translate(87.05 403.83) rotate(-108.68) scale(.75 1)"><tspan x="0" y="0"> </tspan></text><text class="cls-2" transform="translate(83.41 392.78) rotate(-107.08) scale(.75 1)"><tspan x="0" y="0">(</tspan></text><text class="cls-2" transform="translate(82.65 390.95) rotate(-104.3) scale(.75 1)"><tspan x="0" y="0">1</tspan></text><text class="cls-2" transform="translate(77.54 369.74) rotate(-101.53) scale(.75 1)"><tspan x="0" y="0">é</tspan></text><text class="cls-2" transform="translate(77.1 367.67) rotate(-100.17) scale(.75 1)"><tspan x="0" y="0">`</tspan></text><text class="cls-2" transform="translate(75.47 358.18) rotate(-98.8) scale(.75 1)"><tspan x="0" y="0">N</tspan></text><text class="cls-2" transform="translate(75.11 356.11) rotate(-97.21) scale(.75 1)"><tspan x="0" y="0"> </tspan></text><text class="cls-2" transform="translate(73.71 344.69) rotate(-94.55) scale(.75 1)"><tspan x="0" y="0"> </tspan></text><text class="cls-2" transform="translate(72.72 333.34) rotate(-90.93) scale(.75 1)"><tspan x="0" y="0">3</tspan></text><text class="cls-2" transform="translate(72.47 311.98) rotate(-85.92) scale(.75 1)"><tspan x="0" y="0">y</tspan></text><text class="cls-2" transform="translate(74.29 290.41) rotate(-83.2) scale(.75 1)"><tspan x="0" y="0">Y</tspan></text><text class="cls-2" transform="translate(74.38 288.42) rotate(-80.69) scale(.75 1)"><tspan x="0" y="0">8</tspan></text><text class="cls-2" transform="translate(77.26 269.34) rotate(-74.77) scale(.75 1)"><tspan x="0" y="0">2</tspan></text><text class="cls-2" transform="translate(86.17 238.8) rotate(-70.85) scale(.75 1)"><tspan x="0" y="0">P</tspan></text><text class="cls-2" transform="translate(86.92 236.68) rotate(-70.33) scale(.75 1)"><tspan x="0" y="0">#</tspan></text><text class="cls-2" transform="translate(87.6 234.68) rotate(-68.72) scale(.75 1)"><tspan x="0" y="0"> </tspan></text><text class="cls-2" transform="translate(91.81 223.98) rotate(-66.04) scale(.75 1)"><tspan x="0" y="0"> </tspan></text><text class="cls-2" transform="translate(96.33 213.56) rotate(-62.24) scale(.75 1)"><tspan x="0" y="0">e</tspan></text><text class="cls-2" transform="translate(106.3 194.76) rotate(-57.29) scale(.75 1)"><tspan x="0" y="0">y</tspan></text><text class="cls-2" transform="translate(118.24 176.7) rotate(-54.57) scale(.75 1)"><tspan x="0" y="0">Y</tspan></text><text class="cls-2" transform="translate(119.23 174.98) rotate(-51.84) scale(.75 1)"><tspan x="0" y="0">6</tspan></text><text class="cls-2" transform="translate(132.5 158.21) rotate(-46.9) scale(.75 1)"><tspan x="0" y="0">1</tspan></text><text class="cls-2" transform="translate(147.01 142.43) rotate(-40.83) scale(.75 1)"><tspan x="0" y="0">5</tspan></text><text class="cls-2" transform="translate(170.78 122.08) rotate(-33.79) scale(.71 1)"><tspan x="0" y="0">5</tspan></text><text class="cls-2" transform="translate(195.39 105.63) rotate(-26.71) scale(.71 1)"><tspan x="0" y="0">〤</tspan></text><text class="cls-2" transform="translate(195.88 105.84) rotate(-29.22) scale(.71 1)"><tspan x="0" y="0">-</tspan></text><path class="cls-1" d="M364.18,178.1h.01c3.44,0,6.24-2.81,6.23-6.25h0c0-1.68-.65-3.25-1.83-4.43-1.18-1.18-2.74-1.82-4.41-1.82h-.01c-1.67,0-3.23.65-4.41,1.83-1.18,1.18-1.82,2.75-1.82,4.43,0,3.44,2.8,6.23,6.24,6.23Z"/><path class="cls-1" d="M367.34,181.27c0,1.67.65,3.23,1.83,4.41,1.18,1.18,2.75,1.82,4.41,1.82h0c3.44,0,6.24-2.81,6.23-6.25h0c0-1.68-.65-3.25-1.83-4.43-1.18-1.18-2.74-1.82-4.41-1.82h0c-1.67,0-3.23.65-4.41,1.83-1.18,1.18-1.82,2.75-1.82,4.43Z"/><path class="cls-1" d="M354.63,186.79h0c3.44,0,6.24-2.81,6.24-6.25h0c0-1.68-.65-3.25-1.83-4.42-1.18-1.18-2.72-1.87-4.42-1.82-1.67,0-3.23.65-4.41,1.83-1.18,1.18-1.82,2.75-1.82,4.43,0,1.67.65,3.23,1.83,4.41,1.18,1.18,2.74,1.82,4.41,1.82Z"/><path class="cls-1" d="M370.28,189.94c0-1.67-.65-3.23-1.83-4.41-1.18-1.18-2.77-1.75-4.42-1.82-3.44,0-6.24,2.81-6.23,6.26,0,1.67.65,3.23,1.83,4.41,1.18,1.18,2.74,1.82,4.41,1.82h.01c1.67,0,3.23-.65,4.41-1.83,1.18-1.18,1.82-2.75,1.82-4.42h-.83s.83-.01.83-.01Z"/><path class="cls-1" d="M262.47,404.77c0-3.44-2.8-6.23-6.24-6.23h-.01c-3.44,0-6.24,2.81-6.23,6.26,0,1.67.65,3.23,1.83,4.41,1.18,1.18,2.74,1.82,4.41,1.82h.01c1.67,0,3.23-.65,4.41-1.83,1.18-1.18,1.82-2.75,1.82-4.42h-.83s.83-.01.83-.01Z"/><path class="cls-1" d="M271.87,414.18c0-3.44-2.8-6.23-6.24-6.23h-.01c-3.44,0-6.24,2.81-6.23,6.26,0,3.44,2.8,6.23,6.24,6.23,1.66.1,3.24-.65,4.42-1.83,1.18-1.18,1.82-2.75,1.82-4.42h-.83s.83-.01.83-.01Z"/><path class="cls-1" d="M252.92,413.48h0c0-1.68-.65-3.25-1.83-4.42-1.18-1.18-2.74-1.82-4.41-1.82h-.01c-3.44,0-6.24,2.81-6.23,6.26,0,1.67.65,3.23,1.83,4.41,1.18,1.18,2.74,1.82,4.41,1.82h.01c1.67,0,3.23-.65,4.41-1.83,1.18-1.18,1.82-2.75,1.82-4.42Z"/><path class="cls-1" d="M256.08,416.64h-.01c-3.44,0-6.24,2.81-6.23,6.26,0,1.67.65,3.23,1.83,4.41,1.18,1.18,2.74,1.82,4.41,1.82h.01c1.67,0,3.23-.65,4.41-1.83,1.18-1.18,1.82-2.75,1.82-4.42h0c0-1.68-.65-3.25-1.83-4.42-1.18-1.18-2.74-1.82-4.41-1.82Z"/><path class="cls-1" d="M455.03,250.49c-24.33-13.73-33.53-34.62-38.47-45.85-2.48-5.63-3.84-8.73-5.99-8.91-1.42-.1-2.43,1.12-3.06,2.07-5.6,8.41-59.14,5.89-80.04,4.16.83-28.14,1.5-47.94,1.52-48.59l-1.85-.61-17.76,25.53c-9.16-4.13-14.41-5.42-15.62-3.84-.94,1.23.43,2.87.94,3.48,4.09,4.91,5.12,17.58,5.38,23.53-20.82.75-72.21.78-77.78-7.57-1.2-1.8-2.05-2.98-3.23-2.77-1.15.19-1.47,1.43-2.06,3.66-1.73,6.57-5.77,21.95-31.4,36.41-5.37,3.03-6,4.38-5.88,5.4.05.4.29,1.13,1.42,1.45.39.11.91.16,1.56.16,8.54,0,38.12-9.3,46.94-20.32,4.91-6.15,48.51-5.1,70.38-3.92-.03,2.07-.06,4.43-.09,7.09-8.2-.15-39.89.37-55.34,16.47-6.36,6.62-9.12,15.09-8.2,25.17,1.2,13.21,6.17,23.17,14.77,29.59,11.13,8.31,26.24,9.07,37.31,8.16-49.25,53.76-69.59,54.02-91.1,54.3-3.3.04-6.71.09-10.21.34-3.33.24-4.49.38-4.49,1.56,0,1.03.82,1.33,4.36,1.59,1.24.42,11.77,4.02,21.5,8.38l3.12,1.41c6.37,2.89,10.45,4.75,14.66,4.75,5.42,0,11.05-3.07,22.04-10.94,9.14-6.55,15.23-13.67,24.45-24.45l.56-.66c13.01-15.21,20.81-23.76,25.48-28.57-.51,44-.97,90.44-.97,113.68,0,42.88-17.54,70.3-21.42,71.83-.01-.19-.01-.49.06-.98,1.5-9.51-4.13-12.25-9.1-14.67-1.13-.55-2.3-1.12-3.35-1.75-2.48-1.49-6.96.03-10.3,2.2-4.82,3.13-7.41,7.39-6.92,11.38.6,4.93,5.53,9.03,14.65,12.19,2.83.98,5.64,1.47,8.43,1.47,4.47,0,8.88-1.26,13.17-3.78,18.18-10.69,28.58-40.56,29.9-48.06,1.59-9.02,4.09-13.55,6.09-16.49.77-1.13.93-2.25,1.04-2.99.01-.07.02-.16.03-.24.21.08.54.22,1.06.49,28.48,14.81,48.81.71,50.57-.58,4.87-2.03,4.58-3.36,4.46-3.86-.29-1.28-1.95-1.68-6.16-1.46-10.68.54-41.81-3.42-45.12-28.19-1.28-9.62-1.02-47.12-.2-89.98.5.28,1,.39,1.47.17.21-.1.37-.24.49-.4,4.19,4.11,12.3,12.78,27.96,31.08,2.43,2.84,4.77,5.77,7.04,8.6,6.65,8.3,12.93,16.14,20.32,20.54,14.21,8.46,27.39,10.44,36.63,10.44,8.1,0,13.16-1.53,13.22-1.55,4.89-.98,4.83-1.96,4.79-2.55-.07-1.21-1.52-1.53-4.34-1.74-24.78-1.77-76.18-46.06-97.99-70.36-.08-.09-.16-.18-.24-.26,12.51,1.83,28,1.59,39.39-6.92,8.54-6.38,13.5-16.55,14.75-30.23.95-10.43-1.85-19.12-8.33-25.84-15.8-16.41-48.03-15.95-53.1-15.76.08-2.98.17-5.92.25-8.79,22.38.01,69.18,1.35,74.19,7.61,9.04,11.3,52.89,33.2,57.9,33.2.11,0,.2,0,.27-.03l.72-.25.08-.67c.09-.77-.09-1.23-5.23-4.13ZM299.1,288.38c-5.52,1.48-22.37,5.07-32.87-2.75-6.32-4.71-9.34-12.83-8.98-24.15.33-10.32,3.11-17.99,8.26-22.78,7.88-7.34,20.08-6.87,28.15-6.56,1.54.06,2.95.11,4.19.11.72,0,1.36-.04,1.96-.1-.2,14.98-.45,34.81-.71,56.23ZM326.55,234.33c.99.26,2.21.39,3.71.39,1.27,0,2.67-.06,4.17-.12,7.36-.3,17.45-.71,24.27,5.64,5.06,4.71,7.81,12.68,8.16,23.71.38,11.89-2.65,20.25-8.99,24.84-10.63,7.7-27.55,2.58-30.31,1.67-.81-1.7-1.57-3.29-2.3-4.8.39-17.34.84-34.91,1.28-51.33Z"/><path class="cls-1" d="M308.52,162.09l1.02.85.55-1.21c2.95-6.52,11.74-23.64,16.91-24.5,5.69-.95,10.11-10.83,11.65-15.92,1.15-3.81.63-4.3.28-4.63l-.49-.36-.44.03c-.92.06-1.71.97-4.08,3.85-4.04,4.91-11.56,14.08-18.96,13.31-5.52-.55-10.56,2.64-12.86,8.12-2.27,5.42-1.78,13.64,6.41,20.46Z"/></g></g></svg>